<svg width="16" height="15" viewBox="0 0 16 15" fill="none" xmlns="http://www.w3.org/2000/svg">
<path d="M4.6894 4.29412C5.59905 4.29412 6.33646 3.55671 6.33646 2.64706C6.33646 1.73741 5.59905 1 4.6894 1C3.77976 1 3.04234 1.73741 3.04234 2.64706C3.04234 3.55671 3.77976 4.29412 4.6894 4.29412Z" stroke="black" stroke-width="0.75" stroke-linecap="round" stroke-linejoin="round"/>
<path d="M6.33646 2.64709H15" stroke="black" stroke-width="0.75" stroke-linecap="round" stroke-linejoin="round"/>
<path d="M1 2.64709H3.04236" stroke="black" stroke-width="0.75" stroke-linecap="round" stroke-linejoin="round"/>
<path d="M10.8659 9.23528C11.7755 9.23528 12.5129 8.49787 12.5129 7.58822C12.5129 6.67858 11.7755 5.94116 10.8659 5.94116C9.95623 5.94116 9.21881 6.67858 9.21881 7.58822C9.21881 8.49787 9.95623 9.23528 10.8659 9.23528Z" stroke="black" stroke-width="0.75" stroke-linecap="round" stroke-linejoin="round"/>
<path d="M12.5129 7.58826H15" stroke="black" stroke-width="0.75" stroke-linecap="round" stroke-linejoin="round"/>
<path d="M1 7.58826H9.21883" stroke="black" stroke-width="0.75" stroke-linecap="round" stroke-linejoin="round"/>
<path d="M4.6894 14.1764C5.59905 14.1764 6.33646 13.439 6.33646 12.5294C6.33646 11.6197 5.59905 10.8823 4.6894 10.8823C3.77976 10.8823 3.04234 11.6197 3.04234 12.5294C3.04234 13.439 3.77976 14.1764 4.6894 14.1764Z" stroke="black" stroke-width="0.75" stroke-linecap="round" stroke-linejoin="round"/>
<path d="M6.74823 12.5294H15" stroke="black" stroke-width="0.75" stroke-linecap="round" stroke-linejoin="round"/>
<path d="M1 12.5294H3.04236" stroke="black" stroke-width="0.75" stroke-linecap="round" stroke-linejoin="round"/>
</svg>
